# xmcd CD database file
#
# Track frame offsets:
#	151
#	21866
#	42990
#	65851
#	91867
#	113523
#	134262
#	154524
#	174365
#	193079
#	213504
#	235498
#	255710
#	272152
#
# Disc length: 3948 seconds
#
# Revision: 0
# Processed by: cddbd v1.5.2PL0 Copyright (c) Steve Scherf et al.
# Submitted via: CDex 2.08
#
DISCID=c40f6a0e
DTITLE=Tumbao Salsero - Tumbao Salsero
DYEAR=2002
DGENRE=Salsa
TTITLE0=Willie Rosario - Que pasa Contigo
TTITLE1=Puerto Rican Power - Solo Ella
TTITLE2=Orquesta Bronko - Bronko mix
TTITLE3=Rey Reyes - Patios batelles y callejones
TTITLE4=Alo Matta - Derroche
TTITLE5=Albert Mendez - Que puedo hacer yo
TTITLE6=Willie Rosario - Arrepentios pecadores
TTITLE7=Conjunto Imagen - Mario Rumba
TTITLE8=Kiko Mendive - Buru barara
TTITLE9=Willie Rosario - La bomba
TTITLE10=Junior Quintero - Pruebame
TTITLE11=Rudy Victorino - Don Camionero
TTITLE12=Orquesta la Solucion - Homenaje a Frankie Ruiz
TTITLE13=Alex Bruno - A quien
EXTD=YEAR: 2002
EXTT0=
EXTT1=
EXTT2=
EXTT3=
EXTT4=
EXTT5=
EXTT6=
EXTT7=
EXTT8=
EXTT9=
EXTT10=
EXTT11=
EXTT12=
EXTT13=
PLAYORDER=
